<?xml version="1.0" encoding="UTF-8"?>
<svg width="113px" height="35px" viewBox="0 0 113 35" version="1.1" xmlns="http://www.w3.org/2000/svg" xmlns:xlink="http://www.w3.org/1999/xlink">
    <title>logos/light/bolt</title>
    <g id="Page-1" stroke="none" stroke-width="1" fill="none" fill-rule="evenodd">
        <g id="Gov-tech:hover" transform="translate(-980.000000, -1219.000000)">
            <g id="logos/light/bolt" transform="translate(980.000000, 1219.000000)">
                <path d="M54.3378906,25 C55.9329427,25 57.1780599,24.6370443 58.0732422,23.9111328 C58.9684245,23.1852214 59.4160156,22.1809896 59.4160156,20.8984375 C59.4160156,19.9479167 59.180013,19.1943359 58.7080078,18.6376953 C58.2360026,18.0810547 57.4986979,17.7083333 56.4960938,17.5195312 L56.4960938,17.5195312 L56.4960938,17.421875 C57.3033854,17.2786458 57.921875,16.9303385 58.3515625,16.3769531 C58.78125,15.8235677 58.9960938,15.1302083 58.9960938,14.296875 C58.9960938,13.0598958 58.5582682,12.1549479 57.6826172,11.5820312 C56.8069661,11.0091146 55.3860677,10.7226562 53.4199219,10.7226562 L53.4199219,10.7226562 L49.1816406,10.7226562 L49.1816406,25 L54.3378906,25 Z M53.7617188,16.6210938 L51.515625,16.6210938 L51.515625,12.6757812 L53.5371094,12.6757812 C54.5917969,12.6757812 55.3616536,12.8255208 55.8466797,13.125 C56.3317057,13.4244792 56.5742188,13.9095052 56.5742188,14.5800781 C56.5742188,15.3222656 56.3496094,15.8479818 55.9003906,16.1572266 C55.4511719,16.4664714 54.7382812,16.6210938 53.7617188,16.6210938 L53.7617188,16.6210938 Z M53.9960938,23.0371094 L51.515625,23.0371094 L51.515625,18.515625 L53.8789062,18.515625 C54.9140625,18.515625 55.6855469,18.6946615 56.1933594,19.0527344 C56.7011719,19.4108073 56.9550781,19.9609375 56.9550781,20.703125 C56.9550781,21.5104167 56.7060547,22.101237 56.2080078,22.4755859 C55.7099609,22.8499349 54.9726562,23.0371094 53.9960938,23.0371094 L53.9960938,23.0371094 Z M73.3808594,25.1953125 C75.5097656,25.1953125 77.1552734,24.5507812 78.3173828,23.2617188 C79.4794922,21.9726562 80.0605469,20.1660156 80.0605469,17.8417969 C80.0605469,15.5110677 79.4811198,13.7044271 78.3222656,12.421875 C77.1634115,11.1393229 75.5227865,10.4980469 73.4003906,10.4980469 C71.2454427,10.4980469 69.5869141,11.1295573 68.4248047,12.3925781 C67.2626953,13.655599 66.6816406,15.4654948 66.6816406,17.8222656 C66.6816406,20.1790365 67.2594401,21.9970703 68.4150391,23.2763672 C69.570638,24.5556641 71.2259115,25.1953125 73.3808594,25.1953125 Z M73.3808594,23.203125 C71.9876302,23.203125 70.9361979,22.7490234 70.2265625,21.8408203 C69.5169271,20.9326172 69.1621094,19.5996094 69.1621094,17.8417969 C69.1621094,16.0904948 69.5185547,14.7623698 70.2314453,13.8574219 C70.9443359,12.952474 72.000651,12.5 73.4003906,12.5 C74.7871094,12.5 75.8304036,12.952474 76.5302734,13.8574219 C77.2301432,14.7623698 77.5800781,16.0904948 77.5800781,17.8417969 C77.5800781,19.6191406 77.226888,20.9570312 76.5205078,21.8554688 C75.8141276,22.7539062 74.7675781,23.203125 73.3808594,23.203125 Z M96.5058594,25 L96.5058594,22.9980469 L90.4609375,22.9980469 L90.4609375,10.7226562 L88.1269531,10.7226562 L88.1269531,25 L96.5058594,25 Z M108.498047,25 L108.498047,12.7246094 L112.697266,12.7246094 L112.697266,10.7226562 L101.964844,10.7226562 L101.964844,12.7246094 L106.164062,12.7246094 L106.164062,25 L108.498047,25 Z" id="BOLT" fill="#000000" fill-rule="nonzero"></path>
                <g id="thor_avatars-copy-2">
                    <g id="Thor_1" transform="translate(0.000000, 2.000000)">
                        <rect id="size" x="0" y="0" width="31" height="31"></rect>
                        <path d="M15.5000302,2.325 C22.7763345,2.325 28.675,8.22366545 28.675,15.5000302 C28.675,22.7763949 22.7763345,28.675 15.5000302,28.675 C8.22372581,28.675 2.325,22.7763345 2.325,15.5000302 C2.325,8.22372581 8.22366545,2.325 15.5000302,2.325 Z" id="circle" fill="#000000" fill-rule="nonzero" opacity="0.2"></path>
                    </g>
                    <polygon id="Path-42" fill="#000000" points="9.64596902 0 21.8929934 0 13.9123716 13.2057238 28 13.2057238 6.55860026 35 13.4484919 18.838497 3 18.838497"></polygon>
                </g>
            </g>
        </g>
    </g>
</svg>