<?xml version="1.0" encoding="UTF-8"?>
<svg width="66px" height="66px" viewBox="0 0 66 66" version="1.1" xmlns="http://www.w3.org/2000/svg" xmlns:xlink="http://www.w3.org/1999/xlink">
    <!-- Generator: Sketch 64 (93537) - https://sketch.com -->
    <title>chatBot</title>
    <desc>Created with Sketch.</desc>
    <g id="Page-1" stroke="none" stroke-width="1" fill="none" fill-rule="evenodd">
        <g id="Thor" transform="translate(-829.000000, -1048.000000)">
            <g id="avatars" transform="translate(0.000000, 799.000000)">
                <g id="chatBot" transform="translate(827.000000, 247.000000)">
                    <g id="Rectangle_408" opacity="0">
                        <rect id="Rectangle" fill="#FFFFFF" fill-rule="nonzero" x="0" y="0" width="70" height="70"></rect>
                        <rect id="Rectangle" stroke="#707070" x="0.0494350282" y="0.0494350282" width="69.9011299" height="69.9011299"></rect>
                    </g>
                    <g id="Group_661" transform="translate(2.372881, 2.372881)" fill-rule="nonzero">
                        <g id="Group" fill="#0958B5">
                            <path d="M32.6272175,0.0494350282 L32.6272175,0.0494350282 C50.619096,0.0494350282 65.2049011,14.6351412 65.2049011,32.6271186 L65.2049011,32.6271186 C65.2049011,50.619096 50.619096,65.2048023 32.6272175,65.2048023 L32.6272175,65.2048023 C14.6351412,65.2048023 0.0495338983,50.619096 0.0495338983,32.6271186 L0.0495338983,32.6271186 C0.0495338983,14.6351412 14.6351412,0.0494350282 32.6272175,0.0494350282 Z" id="Rectangle_264-2"></path>
                        </g>
                        <path d="M32.1438418,48.9783479 L31.1628531,48.9783479 C30.1041534,48.9783479 29.0481245,48.8721327 28.0107768,48.6605791 C26.0101905,48.2509294 24.1098478,47.4513509 22.4181921,46.3074718 C19.903604,44.6099612 17.9352618,42.2196376 16.7516525,39.4261158 C16.3517442,38.4799732 16.0464936,37.4965608 15.8403672,36.4902684 C15.4166993,34.4102385 15.4166993,32.2661457 15.8403672,30.1861158 C16.2500169,28.1855295 17.0495954,26.2851867 18.1934746,24.5935311 C19.8909809,22.0789391 22.2813057,20.1105959 25.0748305,18.9269915 C26.0209732,18.5270832 27.0043855,18.2218326 28.010678,18.0157062 C29.0480838,17.8040743 30.1041796,17.6977399 31.162952,17.6977399 L47.7838987,17.6977399 L47.7838987,33.3379944 C47.7838987,34.396694 47.6776829,35.4527229 47.4661299,36.4900706 C47.0564803,38.4906569 46.2569018,40.3909997 45.1130226,42.0826554 C43.4155121,44.5972434 41.0251885,46.5655856 38.2316667,47.7491949 C37.285524,48.1491033 36.3021117,48.4543539 35.2958192,48.6604802 C34.2585072,48.8720598 33.2025118,48.9783479 32.1438418,48.9783479 Z M25.2019774,36.2784887 C24.5452773,36.2784887 24.0129167,36.8108493 24.0129167,37.4675494 C24.0129167,38.1242495 24.5452773,38.6566102 25.2019774,38.6566102 L33.7996186,38.6566102 C34.4563188,38.6566102 34.9886794,38.1242495 34.9886794,37.4675494 C34.9886794,36.8108493 34.4563188,36.2784887 33.7996186,36.2784887 L25.2019774,36.2784887 Z M25.2019774,32.3860734 C24.5453046,32.3860734 24.0129661,32.9184119 24.0129661,33.5750847 C24.0129661,34.2317576 24.5453046,34.764096 25.2019774,34.764096 L38.1849011,34.764096 C38.8415739,34.764096 39.3739124,34.2317576 39.3739124,33.5750847 C39.3739124,32.9184119 38.8415739,32.3860734 38.1849011,32.3860734 L25.2019774,32.3860734 Z M25.2019774,28.0839407 C24.5452773,28.0839407 24.0129167,28.6163013 24.0129167,29.2730014 C24.0129167,29.9297015 24.5452773,30.4620621 25.2019774,30.4620621 L38.1849011,30.4620621 C38.8416012,30.4620621 39.3739619,29.9297015 39.3739619,29.2730014 C39.3739619,28.6163013 38.8416012,28.0839407 38.1849011,28.0839407 L25.2019774,28.0839407 Z" id="Subtraction_3" fill="#FFFFFF"></path>
                    </g>
                </g>
            </g>
        </g>
    </g>
</svg>