<?xml version="1.0" encoding="UTF-8"?>
<svg width="194px" height="152px" viewBox="0 0 194 152" version="1.1" xmlns="http://www.w3.org/2000/svg" xmlns:xlink="http://www.w3.org/1999/xlink">
    <!-- Generator: Sketch 52.6 (67491) - http://www.bohemiancoding.com/sketch -->
    <title>Group 9</title>
    <desc>Created with Sketch.</desc>
    <g id="Page-1" stroke="none" stroke-width="1" fill="none" fill-rule="evenodd">
        <g id="Home-page" transform="translate(-343.000000, -516.000000)" fill="#FFFFFF">
            <g id="Group-9" transform="translate(343.000000, 516.000000)">
                <path d="M17.730957,0.691894531 L20.4394531,7.24267578 L20.4394531,113 L3.30664062,113 L3.30664062,0.691894531 L17.730957,0.691894531 Z M46.6425781,106.38623 L46.6425781,0.691894531 L63.2084961,0.691894531 L63.2084961,113 L49.2880859,113 L46.6425781,106.38623 Z M23.5888672,14.8642578 L43.4931641,58.3261719 L43.4931641,98.449707 L23.5888672,53.2241211 L23.5888672,14.8642578 Z M100.056641,83.3955078 L89.5375977,113 L70.8300781,113 L90.2304688,58.578125 L100.056641,83.3955078 Z M70.7670898,0.754882812 L91.6791992,0.754882812 L136.148926,113 L115.11084,113 L70.7670898,0.754882812 Z M106.040527,28.5327148 L114.858887,0.754882812 L133.944336,0.754882812 L116.118652,53.7910156 L106.040527,28.5327148 Z M176.335449,18.8955078 L176.335449,113 L156.368164,113 L156.368164,18.8955078 L176.335449,18.8955078 Z M138.731445,0.754882812 L193.783203,0.754882812 L193.783203,15.7460938 L138.731445,15.7460938 L138.731445,0.754882812 Z" id="NXT"></path>
                <path d="M1.672,133.164 L16.176,133.164 C17.548,133.164 17.548,135.096 16.176,135.096 L9.932,135.096 C9.932,140.136 9.96,145.26 9.96,150.3 C9.96,151 9.372,151.336 8.896,151.336 C8.42,151.336 7.888,151 7.888,150.3 L7.888,135.096 L1.672,135.096 C0.356,135.096 0.356,133.164 1.672,133.164 Z M37.9199998,144.532 L33.5239998,135.712 L29.0999998,144.532 L37.9199998,144.532 Z M38.7879998,146.296 L28.2599998,146.296 L25.9919998,150.72 C25.4879998,151.756 23.6399998,151.028 24.1439998,149.908 L32.5999998,133.248 C32.7679998,132.884 33.1599998,132.716 33.5239998,132.716 C33.8879998,132.716 34.2239998,132.884 34.4199998,133.248 L42.8479998,149.824 C43.5759998,151.028 41.5039998,151.728 40.9719998,150.636 L38.7879998,146.296 Z M56.9759996,135.04 L56.9759996,142.992 L62.6319996,142.992 C66.2999996,142.992 67.8959996,141.284 67.8399996,139.184 C67.8119996,136.888 65.8799996,135.04 62.6319996,135.04 L56.9759996,135.04 Z M62.4079996,144.756 L56.9759996,144.756 L56.9759996,150.188 C56.9759996,151.476 54.9319996,151.476 54.9319996,150.216 L54.9319996,134.144 C54.9319996,133.556 55.3519996,133.164 55.9679996,133.164 L62.6039996,133.164 C67.4479996,133.164 69.9119996,135.908 69.9119996,139.184 C69.9119996,142.012 68.3719996,144.056 64.9279996,144.644 L69.4639996,149.544 C70.5279996,150.608 68.9879996,151.84 68.0639996,150.888 L62.4079996,144.756 Z M84.5439994,143.076 L84.5439994,149.152 L95.6039994,149.152 C96.7799994,149.152 96.9479994,151 95.6039994,151 L83.8159994,151 C83.0319994,151 82.5279994,150.44 82.5279994,149.768 L82.5279994,134.396 C82.5279994,133.752 83.0319994,133.192 83.8159994,133.192 L95.6319994,133.192 C96.8359994,133.192 96.7799994,134.984 95.6039994,134.984 L84.5439994,134.984 L84.5439994,141.284 L95.0719994,141.284 C96.1919994,141.284 96.2479994,143.076 95.0719994,143.076 L84.5439994,143.076 Z M122.247999,143.776 L122.247999,133.864 C122.247999,132.688 124.375999,132.632 124.375999,133.864 L124.375999,149.936 C124.375999,151.336 122.443999,151.476 121.855999,150.496 L111.383999,136.468 L111.607999,140.332 L111.607999,150.216 C111.607999,151.588 109.479999,151.616 109.479999,150.216 L109.479999,134.172 C109.479999,132.772 111.047999,132.548 111.747999,133.584 L122.527999,148.004 L122.247999,143.776 Z M136.711999,133.164 L151.215999,133.164 C152.587999,133.164 152.587999,135.096 151.215999,135.096 L144.971999,135.096 C144.971999,140.136 144.999999,145.26 144.999999,150.3 C144.999999,151 144.411999,151.336 143.935999,151.336 C143.459999,151.336 142.927999,151 142.927999,150.3 L142.927999,135.096 L136.711999,135.096 C135.395999,135.096 135.395999,133.164 136.711999,133.164 Z M171.839999,151.308 C166.799999,151.308 162.767999,147.724 162.767999,141.788 C162.767999,137.392 165.735999,133.64 170.187999,132.94 C171.223999,132.8 172.175999,132.828 173.155999,132.94 C177.467999,133.612 180.799999,137.196 180.799999,141.788 C180.799999,147.612 176.599999,151.308 171.839999,151.308 Z M170.467999,134.816 C167.079999,135.348 164.867999,138.064 164.867999,141.872 C164.867999,146.464 167.891999,149.376 171.839999,149.376 C175.619999,149.376 178.727999,146.576 178.727999,141.872 C178.727999,138.26 176.347999,135.376 172.903999,134.816 C172.063999,134.704 171.251999,134.704 170.467999,134.816 Z" id="TARENTO" fill-opacity="0.4" opacity="0.7"></path>
            </g>
        </g>
    </g>
</svg>