<?xml version="1.0" encoding="UTF-8"?>
<svg width="48px" height="48px" viewBox="0 0 48 48" version="1.1" xmlns="http://www.w3.org/2000/svg" xmlns:xlink="http://www.w3.org/1999/xlink">
    <title>aurora</title>
    <g id="Screens" stroke="none" stroke-width="1" fill="none" fill-rule="evenodd">
        <g id="Pricing" transform="translate(-562.000000, -1073.000000)">
            <g id="Group-5-Copy-6" transform="translate(530.000000, 1033.000000)">
                <g id="Aurora/symbol/coloured" transform="translate(32.000000, 40.000000)">
                    <path d="M24.000055,0 C37.254803,0 48,10.745197 48,24.000055 C48,37.2549129 37.254803,48 24.000055,48 C10.745307,48 0,37.254803 0,24.000055 C0,10.745307 10.745197,0 24.000055,0 Z" id="circle" fill="#120033" fill-rule="evenodd"></path>
                    <g id="Aurora/symbol/dark" transform="translate(8.000000, 8.000000)">
                        <path d="M16.0000305,2.66666667 C23.3637794,2.66666667 29.3333333,8.63622057 29.3333333,16.0000305 C29.3333333,23.3638405 23.3637794,29.3333333 16.0000305,29.3333333 C8.63628166,29.3333333 2.66666667,23.3637794 2.66666667,16.0000305 C2.66666667,8.63628166 8.63622057,2.66666667 16.0000305,2.66666667 Z" id="circle" fill-opacity="0.2" fill="#FFFFFF" fill-rule="evenodd"></path>
                        <rect id="size" x="0" y="0" width="31.9817038" height="31.9731469"></rect>
                        <path d="M16,20.6666667 L19.8851514,22.7096391 L15.8720108,30.6661082 L12.0471514,22.7446391 L16,20.6666667 Z M23.5811514,14.3776391 L29.9087469,20.6538016 L21.1921514,21.8426391 L20.4382637,17.4420793 L23.5811514,14.3776391 Z M8.36415139,14.3256391 L11.5617363,17.4420793 L10.8191514,21.7686391 L2.01215139,20.4103517 L8.36415139,14.3256391 Z M24.7240675,4.21009938 L23.1611514,12.8666391 L18.7429978,12.2245874 L16.7991514,8.28763906 L24.7240675,4.21009938 Z M7.48302332,4.05963906 L15.2321514,8.22063906 L13.2570022,12.2245874 L8.91215139,12.8556391 L7.48302332,4.05963906 Z" id="Combined-Shape" fill-opacity="0.87" fill="#FFFFFF" fill-rule="nonzero"></path>
                    </g>
                </g>
            </g>
        </g>
    </g>
</svg>