<?xml version="1.0" encoding="UTF-8"?>
<svg width="74px" height="20px" viewBox="0 0 74 20" version="1.1" xmlns="http://www.w3.org/2000/svg" xmlns:xlink="http://www.w3.org/1999/xlink">
    <title>Rain/full/dark</title>
    <g id="Screens" stroke="none" stroke-width="1" fill="none" fill-rule="evenodd">
        <g id="RAIN" transform="translate(-142.000000, -151.000000)">
            <g id="Rain/full/dark" transform="translate(126.000000, 133.000000)">
                <path d="M50.584,32.64 L50.584,29.676 L53.416,29.676 L55.912,32.64 L57.64,32.64 L57.64,32.232 L55.492,29.676 L55.96,29.676 C56.884,29.676 57.64,28.92 57.64,28.008 L57.64,25.68 C57.64,24.768 56.884,24.012 55.96,24.012 L49,24.012 L49,32.64 L50.584,32.64 Z M55.96,28.092 L50.668,28.092 C50.62,28.092 50.584,28.056 50.584,28.008 L50.584,25.68 C50.584,25.632 50.62,25.596 50.668,25.596 L55.96,25.596 C56.008,25.596 56.044,25.632 56.044,25.68 L56.044,28.008 C56.044,28.056 56.008,28.092 55.96,28.092 Z M63.52,32.64 L63.52,29.736 L68.98,29.736 L68.98,32.64 L70.576,32.64 L70.576,25.668 C70.576,24.744 69.82,24 68.896,24 L63.604,24 C62.68,24 61.936,24.744 61.936,25.668 L61.936,32.64 L63.52,32.64 Z M68.98,28.152 L63.52,28.152 L63.52,25.668 C63.52,25.62 63.556,25.584 63.604,25.584 L68.896,25.584 C68.944,25.584 68.98,25.62 68.98,25.668 L68.98,28.152 Z M76.54,32.64 L76.54,24 L74.956,24 L74.956,32.64 L76.54,32.64 Z M82.168,32.64 L82.168,26.304 L87.496,32.64 L89.224,32.64 L89.224,24 L87.628,24 L87.628,30.336 L82.312,24 L80.584,24 L80.584,32.64 L82.168,32.64 Z" id="RAIN" fill="#FFFFFF" fill-rule="evenodd"></path>
                <g id="Rain/symbol/dark" transform="translate(16.000000, 16.000000)">
                    <path d="M12.0000229,2 C17.5228346,2 22,6.47716543 22,12.0000229 C22,17.5228804 17.5228346,22 12.0000229,22 C6.47721124,22 2,17.5228346 2,12.0000229 C2,6.47721124 6.47716543,2 12.0000229,2 Z" id="circle" fill-opacity="0.2" fill="#FFFFFF" fill-rule="evenodd"></path>
                    <rect id="size" x="0" y="0" width="23.9862779" height="23.9798601"></rect>
                    <polygon id="Path-5" fill="#FFFFFF" fill-rule="evenodd" points="8.26689121 6.01044083 24 6.01044083 18.4358452 11.8263172 18.4358452 8.64953297 10.45573 16.3602817 12 9.33018468 0 22.0104408"></polygon>
                </g>
            </g>
        </g>
    </g>
</svg>